<mxfile host="app.diagrams.net" modified="2023-12-11T08:17:09.261Z" agent="Mozilla/5.0 (Windows NT 10.0; Win64; x64) AppleWebKit/537.36 (KHTML, like Gecko) Chrome/119.0.0.0 Safari/537.36 Edg/119.0.0.0" etag="1pQpqO2E9TO3eL49llbH" version="22.1.7" type="device">
  <diagram id="X2K3a4CVGlsGaMza_VcX" name="Страница 1">
    <mxGraphModel dx="3996" dy="500" grid="1" gridSize="10" guides="1" tooltips="1" connect="1" arrows="1" fold="1" page="1" pageScale="1" pageWidth="827" pageHeight="1169" math="0" shadow="0">
      <root>
        <mxCell id="0" />
        <mxCell id="1" parent="0" />
        <mxCell id="ih85UeOb-dqjksHe9gb6-5" value="Работа с&amp;nbsp;department&lt;br&gt;Performance Statistics" style="ellipse;whiteSpace=wrap;html=1;" parent="1" vertex="1">
          <mxGeometry x="-480" y="1825" width="160" height="80" as="geometry" />
        </mxCell>
        <mxCell id="ih85UeOb-dqjksHe9gb6-6" value="Работа с&amp;nbsp;veterinarian" style="ellipse;whiteSpace=wrap;html=1;" parent="1" vertex="1">
          <mxGeometry x="-380" y="1950" width="150" height="80" as="geometry" />
        </mxCell>
        <mxCell id="ih85UeOb-dqjksHe9gb6-10" style="edgeStyle=orthogonalEdgeStyle;rounded=0;orthogonalLoop=1;jettySize=auto;html=1;dashed=1;" parent="1" source="WlpeD-fBBoIzuLBm2mT7-1" target="ih85UeOb-dqjksHe9gb6-5" edge="1">
          <mxGeometry relative="1" as="geometry" />
        </mxCell>
        <mxCell id="ih85UeOb-dqjksHe9gb6-11" style="edgeStyle=orthogonalEdgeStyle;rounded=0;orthogonalLoop=1;jettySize=auto;html=1;entryX=0.5;entryY=0;entryDx=0;entryDy=0;dashed=1;" parent="1" source="WlpeD-fBBoIzuLBm2mT7-1" target="ih85UeOb-dqjksHe9gb6-6" edge="1">
          <mxGeometry relative="1" as="geometry" />
        </mxCell>
        <mxCell id="ih85UeOb-dqjksHe9gb6-13" value="Работа с&amp;nbsp;application" style="ellipse;whiteSpace=wrap;html=1;" parent="1" vertex="1">
          <mxGeometry x="-286" y="1840" width="144" height="80" as="geometry" />
        </mxCell>
        <mxCell id="ih85UeOb-dqjksHe9gb6-28" value="Пользователь" style="shape=umlActor;verticalLabelPosition=bottom;verticalAlign=top;html=1;" parent="1" vertex="1">
          <mxGeometry x="105" y="2020" width="35" height="65" as="geometry" />
        </mxCell>
        <mxCell id="v11anKy7YZOs2Qq218m6-5" value="" style="endArrow=block;html=1;rounded=0;exitX=0.5;exitY=0;exitDx=0;exitDy=0;endFill=0;" parent="1" source="ih85UeOb-dqjksHe9gb6-29" target="v11anKy7YZOs2Qq218m6-9" edge="1">
          <mxGeometry width="50" height="50" relative="1" as="geometry">
            <mxPoint x="273.5" y="1770" as="sourcePoint" />
            <mxPoint x="140" y="1880" as="targetPoint" />
          </mxGeometry>
        </mxCell>
        <mxCell id="v11anKy7YZOs2Qq218m6-6" value="Оформление заявки" style="ellipse;whiteSpace=wrap;html=1;" parent="1" vertex="1">
          <mxGeometry x="-110" y="1750" width="120" height="80" as="geometry" />
        </mxCell>
        <mxCell id="ih85UeOb-dqjksHe9gb6-29" value="Вход&amp;nbsp;" style="ellipse;whiteSpace=wrap;html=1;" parent="1" vertex="1">
          <mxGeometry x="140" y="1960" width="140" height="70" as="geometry" />
        </mxCell>
        <mxCell id="v11anKy7YZOs2Qq218m6-9" value="Зарегестрированный &lt;br&gt;пользователь" style="shape=umlActor;verticalLabelPosition=bottom;verticalAlign=top;html=1;outlineConnect=0;" parent="1" vertex="1">
          <mxGeometry x="110" y="1860" width="30" height="60" as="geometry" />
        </mxCell>
        <mxCell id="v11anKy7YZOs2Qq218m6-10" value="" style="endArrow=classic;html=1;rounded=0;exitX=0;exitY=0.3333333333333333;exitDx=0;exitDy=0;exitPerimeter=0;dashed=1;" parent="1" source="v11anKy7YZOs2Qq218m6-9" target="v11anKy7YZOs2Qq218m6-6" edge="1">
          <mxGeometry width="50" height="50" relative="1" as="geometry">
            <mxPoint x="110" y="1810" as="sourcePoint" />
            <mxPoint x="160" y="1760" as="targetPoint" />
          </mxGeometry>
        </mxCell>
        <mxCell id="v11anKy7YZOs2Qq218m6-11" value="" style="endArrow=classic;html=1;rounded=0;exitX=1;exitY=0.3333333333333333;exitDx=0;exitDy=0;exitPerimeter=0;entryX=0.06;entryY=0.81;entryDx=0;entryDy=0;entryPerimeter=0;dashed=1;" parent="1" source="v11anKy7YZOs2Qq218m6-9" target="v11anKy7YZOs2Qq218m6-12" edge="1">
          <mxGeometry width="50" height="50" relative="1" as="geometry">
            <mxPoint x="230" y="1700" as="sourcePoint" />
            <mxPoint x="330" y="1590" as="targetPoint" />
          </mxGeometry>
        </mxCell>
        <mxCell id="v11anKy7YZOs2Qq218m6-12" value="Редактирование профиля" style="ellipse;whiteSpace=wrap;html=1;" parent="1" vertex="1">
          <mxGeometry x="160" y="1740" width="120" height="80" as="geometry" />
        </mxCell>
        <mxCell id="WlpeD-fBBoIzuLBm2mT7-4" value="" style="edgeStyle=orthogonalEdgeStyle;rounded=0;orthogonalLoop=1;jettySize=auto;html=1;dashed=1;" parent="1" source="WlpeD-fBBoIzuLBm2mT7-1" target="ih85UeOb-dqjksHe9gb6-13" edge="1">
          <mxGeometry relative="1" as="geometry" />
        </mxCell>
        <mxCell id="WlpeD-fBBoIzuLBm2mT7-1" value="Сотрудник" style="shape=umlActor;verticalLabelPosition=bottom;verticalAlign=top;html=1;outlineConnect=0;" parent="1" vertex="1">
          <mxGeometry x="-229" y="1720" width="30" height="60" as="geometry" />
        </mxCell>
        <mxCell id="70xbF360cRohFFGIi1Fz-6" value="" style="endArrow=block;html=1;rounded=0;exitX=1;exitY=0.3333333333333333;exitDx=0;exitDy=0;exitPerimeter=0;entryX=0.257;entryY=0.943;entryDx=0;entryDy=0;entryPerimeter=0;endFill=0;" parent="1" source="ih85UeOb-dqjksHe9gb6-28" target="ih85UeOb-dqjksHe9gb6-29" edge="1">
          <mxGeometry width="50" height="50" relative="1" as="geometry">
            <mxPoint x="140" y="1910" as="sourcePoint" />
            <mxPoint x="190" y="1860" as="targetPoint" />
          </mxGeometry>
        </mxCell>
        <mxCell id="70xbF360cRohFFGIi1Fz-7" value="Регистрация" style="ellipse;whiteSpace=wrap;html=1;" parent="1" vertex="1">
          <mxGeometry x="-30" y="1960" width="140" height="70" as="geometry" />
        </mxCell>
        <mxCell id="70xbF360cRohFFGIi1Fz-8" value="" style="endArrow=block;html=1;rounded=0;exitX=0.543;exitY=0.4;exitDx=0;exitDy=0;exitPerimeter=0;entryX=0.721;entryY=0.943;entryDx=0;entryDy=0;entryPerimeter=0;endFill=0;" parent="1" source="ih85UeOb-dqjksHe9gb6-28" target="70xbF360cRohFFGIi1Fz-7" edge="1">
          <mxGeometry width="50" height="50" relative="1" as="geometry">
            <mxPoint x="17" y="1931.6666666666667" as="sourcePoint" />
            <mxPoint x="60" y="1925" as="targetPoint" />
          </mxGeometry>
        </mxCell>
        <mxCell id="70xbF360cRohFFGIi1Fz-9" value="" style="endArrow=block;html=1;rounded=0;exitX=0.5;exitY=0;exitDx=0;exitDy=0;endFill=0;" parent="1" source="70xbF360cRohFFGIi1Fz-7" target="v11anKy7YZOs2Qq218m6-9" edge="1">
          <mxGeometry width="50" height="50" relative="1" as="geometry">
            <mxPoint x="1.0050000000001091" y="1936" as="sourcePoint" />
            <mxPoint x="250" y="1950" as="targetPoint" />
          </mxGeometry>
        </mxCell>
        <mxCell id="70xbF360cRohFFGIi1Fz-12" value="" style="endArrow=classic;html=1;rounded=0;exitX=0.75;exitY=0.1;exitDx=0;exitDy=0;exitPerimeter=0;entryX=0.5;entryY=0.5;entryDx=0;entryDy=0;entryPerimeter=0;dashed=1;" parent="1" source="v11anKy7YZOs2Qq218m6-9" target="ih85UeOb-dqjksHe9gb6-28" edge="1">
          <mxGeometry width="50" height="50" relative="1" as="geometry">
            <mxPoint x="150" y="1890" as="sourcePoint" />
            <mxPoint x="220" y="2060" as="targetPoint" />
            <Array as="points">
              <mxPoint x="300" y="1870" />
              <mxPoint x="290" y="2060" />
            </Array>
          </mxGeometry>
        </mxCell>
        <mxCell id="1v-c-efhD09awzc2x0H4-1" value="Просмотр заяввок" style="ellipse;whiteSpace=wrap;html=1;" parent="1" vertex="1">
          <mxGeometry x="400" y="1730" width="120" height="80" as="geometry" />
        </mxCell>
        <mxCell id="1v-c-efhD09awzc2x0H4-2" value="" style="endArrow=classic;html=1;rounded=0;exitX=0.5;exitY=0.5;exitDx=0;exitDy=0;exitPerimeter=0;dashed=1;" parent="1" source="v11anKy7YZOs2Qq218m6-9" target="1v-c-efhD09awzc2x0H4-1" edge="1">
          <mxGeometry width="50" height="50" relative="1" as="geometry">
            <mxPoint x="150" y="1890" as="sourcePoint" />
            <mxPoint x="197" y="1835" as="targetPoint" />
          </mxGeometry>
        </mxCell>
        <mxCell id="1v-c-efhD09awzc2x0H4-5" value="Работа с&amp;nbsp;role" style="ellipse;whiteSpace=wrap;html=1;" parent="1" vertex="1">
          <mxGeometry x="-590" y="1960" width="140" height="70" as="geometry" />
        </mxCell>
        <mxCell id="1v-c-efhD09awzc2x0H4-6" style="edgeStyle=orthogonalEdgeStyle;rounded=0;orthogonalLoop=1;jettySize=auto;html=1;dashed=1;" parent="1" source="WlpeD-fBBoIzuLBm2mT7-1" target="1v-c-efhD09awzc2x0H4-5" edge="1">
          <mxGeometry relative="1" as="geometry">
            <mxPoint x="-429" y="1765" as="sourcePoint" />
            <mxPoint x="-510" y="1965" as="targetPoint" />
          </mxGeometry>
        </mxCell>
        <mxCell id="1v-c-efhD09awzc2x0H4-7" value="Работа с user" style="ellipse;whiteSpace=wrap;html=1;" parent="1" vertex="1">
          <mxGeometry x="-740" y="1960" width="140" height="70" as="geometry" />
        </mxCell>
        <mxCell id="1v-c-efhD09awzc2x0H4-8" style="edgeStyle=orthogonalEdgeStyle;rounded=0;orthogonalLoop=1;jettySize=auto;html=1;dashed=1;" parent="1" source="WlpeD-fBBoIzuLBm2mT7-1" target="1v-c-efhD09awzc2x0H4-7" edge="1">
          <mxGeometry relative="1" as="geometry">
            <mxPoint x="-374.5" y="1760" as="sourcePoint" />
            <mxPoint x="-665.5" y="1970" as="targetPoint" />
          </mxGeometry>
        </mxCell>
        <mxCell id="1v-c-efhD09awzc2x0H4-16" value="Админ" style="shape=umlActor;verticalLabelPosition=bottom;verticalAlign=top;html=1;outlineConnect=0;" parent="1" vertex="1">
          <mxGeometry x="-270" y="1350" width="30" height="60" as="geometry" />
        </mxCell>
        <mxCell id="1v-c-efhD09awzc2x0H4-17" style="edgeStyle=orthogonalEdgeStyle;rounded=0;orthogonalLoop=1;jettySize=auto;html=1;exitX=0.5;exitY=0.5;exitDx=0;exitDy=0;exitPerimeter=0;" parent="1" source="1v-c-efhD09awzc2x0H4-16" target="1v-c-efhD09awzc2x0H4-19" edge="1">
          <mxGeometry relative="1" as="geometry">
            <mxPoint x="-110" y="1260" as="sourcePoint" />
            <mxPoint x="-110" y="1400" as="targetPoint" />
          </mxGeometry>
        </mxCell>
        <mxCell id="1v-c-efhD09awzc2x0H4-19" value="Добавить/Удалить/Просмотреть&amp;nbsp;сотрудника" style="ellipse;whiteSpace=wrap;html=1;" parent="1" vertex="1">
          <mxGeometry x="-170" y="1335" width="160" height="90" as="geometry" />
        </mxCell>
      </root>
    </mxGraphModel>
  </diagram>
</mxfile>
